<?xml version="1.0" encoding="utf-8" ?><svg xmlns="http://www.w3.org/2000/svg" xmlns:xlink="http://www.w3.org/1999/xlink" width="1024" height="1024" viewBox="0 0 1024 1024"><path fill="#87F7F7" d="M212.579 385.544C218.881 386.18 300.363 423.463 307.971 428.567C308.55 440.059 308.059 453.686 308.251 465.406C308.366 472.418 308.715 486.449 308.148 493.092C312.093 493.83 322.29 494.786 324.727 497.985C328.287 502.658 326.109 562.639 326.086 572.485C329.127 572.527 332.247 571.968 334.401 574.362C335.974 578.752 336.379 595.275 334.42 600.079C333.941 601.252 332.898 601.67 331.673 602.059C318.457 606.259 304.684 610.007 291.369 613.819C267.095 620.685 242.871 627.727 218.7 634.945C209.377 638.473 206.121 635.729 196.92 632.739L173.547 625.14L126.428 610.157C117.471 607.283 104.725 603.506 96.5409 599.592C96.4706 594.312 95.7335 577.857 98.1312 573.081C98.832 571.684 103.235 571.487 104.968 571.338C106.329 569.069 105.289 531.513 105.467 526.068C106.198 503.776 100.817 507.074 122.485 501.701L122.505 426.916C134.024 420.33 152.567 413.015 164.895 407.247L192.576 394.024C198.725 391.093 206.089 387.273 212.579 385.544ZM216.477 601.916C229.981 598.626 243.434 595.131 256.833 591.433L266.994 588.618C266.884 558.292 267.13 526.499 266.661 496.263C249.979 493.615 232.797 491.676 216.46 489.065L216.477 601.916ZM275.824 586.476C283.3 584.57 290.788 582.714 298.288 580.907C299.738 580.547 307.382 578.675 308.613 578.171C311.488 577.422 314.657 576.66 317.478 575.82C316.905 552.343 318.118 528.392 317.467 504.845C304.128 502.088 288.462 500.798 276.011 498.109C275.982 527.08 276.335 557.644 275.824 586.476ZM257.938 485.651C257.685 462.562 258.096 439.201 257.936 416.034C244.471 409.639 228.659 403.872 216.137 397.785C217.081 420.737 215.869 444.223 216.364 467.23C216.442 470.841 216.555 474.977 216.35 478.544C225.327 479.838 234.279 481.296 243.202 482.916C246.82 483.541 254.733 484.725 257.938 485.651ZM265.561 486.818C270.23 487.554 297.52 492.872 299.372 491.555L299.164 490.878C299.256 472.758 299.36 452.942 298.936 434.837C287.917 429.613 276.828 424.54 265.67 419.62L265.561 486.818ZM175.513 498.483C175.617 513.857 175.544 529.682 175.986 545.015L179.563 542.401C182.033 541.723 186.899 543.585 189.482 544.455C195.809 546.587 200.243 547.141 206.911 546.751L207.047 507.178C207.049 504.077 207.297 493.295 206.985 490.647L175.513 498.483ZM184.555 456.035C187.561 456.163 195.312 457.152 196.617 459.552C201.88 469.23 183.195 469.684 179.425 463.456C178.195 461.423 179.799 459.115 180.889 457.23C179.858 456.888 175.852 458.402 174.435 458.835C173.344 460.141 173.661 460.492 173.687 462.65C173.62 468.708 173.34 478.183 173.901 484.149C178.858 482.317 182.037 480.302 186.016 485.114C193.118 483.26 200.761 481.138 207.91 479.555C207.621 475.464 208.105 447.997 207.144 447.134C204.813 447.742 200.281 448.893 198.155 449.853C192.804 452.266 190.418 454.54 184.555 456.035ZM164.614 500.602C157.184 502.312 149.484 504.131 142.174 506.314C142.024 518.028 141.981 529.743 142.045 541.458C144.379 540.722 144.942 540.336 147.234 540.798C151.591 546.572 159.339 545.783 166.017 546.066C166.024 540.967 166.101 502.665 165.154 500.629L164.614 500.602ZM135.382 457.761C141.238 455.744 143.727 455.412 148.458 460.018C152.955 458.606 159.013 456.511 163.496 455.517C163.449 449.925 163.732 422.23 162.762 418.477C152.685 424.34 142.464 427.317 132.136 433.572C132.185 439.363 131.76 453.393 132.356 458.09C133.724 458.431 134.022 458.181 135.382 457.761ZM142.079 582.605L153.946 586.05C157.968 587.204 162.493 588.389 166.438 589.655C165.9 577.58 166.044 564.79 165.883 552.648C162.581 552.475 158.452 552.1 155.236 552.026C153.956 553.41 152.134 555.508 150.762 556.693C147.885 555.99 144.91 555.321 142.085 554.457C142.384 563.63 141.999 573.36 142.079 582.605ZM207.897 441.004C207.055 431.013 207.58 410.226 207.49 399.249L206.606 398.926L172.474 414.51C172.561 425.61 172.531 438.929 173.062 449.985L173.505 450.074C174.009 449.203 174.704 448.085 175.139 447.21C177.059 443.937 178.845 443.008 182.388 441.579C197.149 445.93 194.112 443.433 207.897 441.004ZM118.388 544.434C122.178 545.364 129.173 545.489 133.533 545.883C133.528 541.285 133.776 511.268 132.99 508.628L131.82 508.461C126.849 510.122 118.87 512.535 114.641 515.191C113.633 521.842 114.026 535.282 114.393 542.292L118.388 544.434ZM175.622 592.551C179.941 593.948 184.275 595.302 188.621 596.614C194.856 598.564 201.107 600.465 207.373 602.315C207.106 586.018 206.983 569.719 207.004 553.42C203.194 553.412 198.683 553.516 194.931 553.326C189.95 561.872 182.976 556.934 175.719 553.844L175.622 592.551ZM133.418 551.66L114.55 551.279C114.398 559.142 114.382 567.007 114.502 574.871C119.978 576.181 128.055 578.225 133.493 579.871L133.418 551.66ZM162.691 462.036C154.981 464.196 149.295 466.845 142.312 470.678C145.349 471.406 152.314 472.415 153.128 474.925C155.894 483.453 144.794 483.018 140.697 478.613C138.965 476.749 135.338 473.42 133.803 473.267C131.328 475.15 132.075 477.949 132.194 480.875C132.274 485.173 132.229 490.57 132.589 494.771C141.528 488.992 139.335 490.948 146.11 493.568C147.867 494.247 161.489 490.62 164.418 489.93C163.291 483.844 164.486 465.982 163.48 462.095L162.691 462.036ZM106.458 582.756L106.52 593.269L174.477 614.835C182.683 617.447 199.541 622.26 206.437 625.4L206.469 612.342C196.834 609.272 186.612 606.194 176.859 603.462C153.707 596.978 129.816 588.131 106.458 582.756ZM324.802 584.708C318.983 585.324 310.957 587.596 305.171 589.103C295.204 591.713 285.252 594.378 275.315 597.099C256.028 602.311 234.858 607.226 215.919 612.703C215.891 616.124 215.704 620.682 216.208 623.945L216.751 624.344L217.612 624.123C253.778 613.644 290.042 603.503 326.398 593.704C326.264 591.621 326.267 585.872 325.508 584.595L324.802 584.708Z"/><path fill="#87F7F7" d="M230.237 508.5C233.997 508.267 239.066 509.067 238.411 513.953C237.269 515.753 237.068 515.759 235.096 516.771C231.707 517.018 228.313 515.798 227.847 512.031C228.222 510.098 228.784 509.833 230.237 508.5Z"/><path fill="#87F7F7" d="M230.196 545.559C233.727 545.137 238.125 544.982 239.408 548.957C239.004 550.885 238.822 550.943 237.349 552.385C233.654 553.379 229.682 553.24 228.356 549.028C228.668 547.018 228.757 547.113 230.196 545.559Z"/><path fill="#87F7F7" d="M248.775 545.506C252.142 545.368 255.662 545.77 256.274 549.679C255.612 551.648 255.506 551.685 253.878 553.081C250.391 553.313 247.243 553.036 246.502 549.053C246.963 547.07 247.228 546.983 248.775 545.506Z"/><path fill="#87F7F7" d="M231.309 526.988C234.438 527.309 238.357 527.8 237.893 531.869C236.91 533.514 236.089 533.699 234.362 534.546C231.115 534.555 227.955 533.731 228.182 529.793C229.21 528.012 229.42 528.004 231.309 526.988Z"/><path fill="#87F7F7" d="M248.835 509.957C252.129 510.308 254.619 510.632 255.725 514.083C255.376 516.021 255.107 516.142 253.746 517.514C248.351 517.901 243.148 515.011 248.835 509.957Z"/><path fill="#87F7F7" d="M248.345 527.963C251.341 527.874 254.926 527.557 255.766 531.168C255.245 533.145 255.071 533.096 253.591 534.439C250.393 534.604 247.722 534.649 246.48 531.297C246.656 529.564 247.167 529.255 248.345 527.963Z"/><path fill="#87F7F7" d="M288.687 544.977C291.834 545.776 293.997 546.455 293.102 550.219C291.8 551.846 291.578 551.806 289.485 552.442C283.707 551.411 282.349 547.127 288.687 544.977Z"/><path fill="#87F7F7" d="M287.707 528.943C290.723 529.221 292.57 529.548 292.864 532.941C292.152 534.851 291.786 534.894 289.939 536.04C286.986 535.657 284.836 535.219 284.645 531.841C285.75 529.78 285.49 530.38 287.707 528.943Z"/><path fill="#87F7F7" d="M286.323 512.976C289.409 512.906 291.865 512.856 292.923 516.195C292.631 517.983 292.213 518.183 290.922 519.444C287.801 519.691 285.633 519.518 284.439 516.281C284.887 514.112 284.693 514.827 286.323 512.976Z"/><path fill="#87F7F7" d="M299.977 545.291C301.143 544.571 302.615 544.568 303.784 545.283C304.953 545.998 305.621 547.309 305.512 548.675C305.404 550.041 304.537 551.23 303.269 551.751C301.517 552.471 299.506 551.726 298.645 550.038C297.785 548.351 298.364 546.285 299.977 545.291Z"/><path fill="#87F7F7" d="M299.431 513.44C302.419 513.372 304.46 513.435 305.673 516.427C305.517 518.453 305.346 518.457 304.242 520.103C301.378 520.063 299.434 519.7 298.09 517.024C298.1 515.136 298.361 514.96 299.431 513.44Z"/><path fill="#87F7F7" d="M300.522 528.719C303.275 529.471 305.017 530.192 305.355 533.196C304.846 534.809 304.277 535.001 302.887 535.982C300.24 535.573 298.679 535.069 298.122 532.301C298.556 530.368 299.098 530.086 300.522 528.719Z"/><path fill="#87F7F7" d="M311.466 514.388C314.797 514.579 316.464 514.878 316.716 518.755C316.035 520.384 316.138 520.437 314.579 521.395C311.922 520.896 310.997 520.817 309.781 518.302C309.8 516.275 310.144 516.094 311.466 514.388Z"/><path fill="#87F7F7" d="M311.515 545.695C312.607 545.042 313.974 545.069 315.039 545.764C316.104 546.459 316.679 547.7 316.52 548.962C316.362 550.223 315.497 551.284 314.294 551.694C312.684 552.242 310.92 551.487 310.206 549.944C309.491 548.401 310.056 546.568 311.515 545.695Z"/><path fill="#87F7F7" d="M310.963 529.886C313.673 529.962 314.807 529.912 316.315 532.365C316.239 534.804 316.417 533.895 315.057 536.103C312.643 535.894 311.164 535.793 309.835 533.519C309.757 531.221 309.645 532.078 310.963 529.886Z"/><path fill="#87F7F7" d="M227.236 421.96C233.028 421.976 240.565 425.494 234.645 431.583C229.281 431.41 223.298 428.004 227.236 421.96Z"/><path fill="#87F7F7" d="M242.009 426.826C247.174 426.876 254.173 429.968 248.733 435.647C243.224 435.462 237.639 433.016 242.009 426.826Z"/><path fill="#87F7F7" d="M272.57 445.746C275.863 445.975 292.402 451.643 295.132 453.815C295.95 455.456 295.891 454.657 295.604 456.25C294.353 457.118 294.711 456.88 293.223 457.396C290.396 456.579 286.437 455.913 285.613 452.833C285.359 451.881 285.065 451.418 284.346 450.726C280.493 453.47 274.997 453.06 272.085 449.18C271.64 446.94 271.581 448.054 272.57 445.746Z"/><path fill="#87F7F7" d="M288.798 442.987C285.07 444.412 281.246 443.255 280.608 438.919C282.778 435.223 286.895 438.264 289.251 440.169C291.931 440.195 293.57 440.325 295.574 442.145C296.331 444.1 296.283 443.131 295.712 445.156C293.195 447.455 289.732 445.371 288.798 442.987Z"/><path fill="#87F7F7" d="M281.301 458.854C283.164 459.054 285.89 459.361 287.1 460.711C290.483 464.487 292.32 460.422 295.351 463.344C295.963 465.149 295.719 465.692 295.393 467.551C292.156 468.045 281.596 464.417 279.82 461.653C279.883 459.882 279.78 460.505 281.301 458.854Z"/><path fill="#87F7F7" d="M282.147 470.499C286.134 471.396 294.737 473.029 297.048 475.763C297.585 477.83 297.539 476.783 296.941 479.022L295.896 479.612C294.827 479.261 292.067 477.911 291.312 477.248C287.792 474.161 282.768 478.245 280.559 473.524C280.909 471.803 281.052 471.814 282.147 470.499Z"/><path fill="#87F7F7" d="M273.289 433.142C276.148 433.458 277.982 434.003 279.136 436.733C278.67 439.026 278.876 438.268 277.096 440.217C274.236 439.834 271.13 438.923 270.968 435.552C271.761 434.018 271.889 434.072 273.289 433.142Z"/><path fill="#87F7F7" d="M272.743 478.901C275.545 478.851 278.754 479.224 280.681 481.414C280.966 483.348 281.057 482.361 279.879 484.397C277.153 485.165 274.454 485.434 272.514 483.002C271.898 481.093 272.138 480.789 272.743 478.901Z"/><path fill="#87F7F7" d="M272.114 455.754C276.319 455.802 279.986 456.918 278.126 462.075C275.494 462.22 273.345 462.18 271.738 459.82C271.209 457.876 271.364 457.737 272.114 455.754Z"/><path fill="#87F7F7" d="M285.158 481.292C288.771 481.362 293.744 482.537 293.355 487.054C288.821 487.78 284.626 486.7 285.158 481.292Z"/><path fill="#87F7F7" d="M272.205 466.802C275.623 467.251 279.897 468.707 279.192 472.948C274.614 473.26 270.111 472.737 272.205 466.802Z"/><path fill="#87F7F7" d="M182.443 505.396C187.097 505.774 196.99 507.784 197.141 513.522C196.377 515.427 195.878 515.557 194.102 516.8C187.376 517.937 172.38 511.722 182.443 505.396Z"/><path fill="#87F7F7" d="M184.148 561.04C190.095 561.166 203.548 565.936 194.561 572.781C188.901 572.443 175.243 567.638 184.148 561.04Z"/><path fill="#87F7F7" d="M182.885 411.449C187.316 411.681 196.509 414.851 196.618 420.205C195.751 422.14 195.532 422.17 193.694 423.403C185.667 424.4 174.862 416.874 182.885 411.449Z"/><path fill="#87F7F7" d="M140.809 429.484C147.141 429.67 159.39 435.616 149.533 441.153C143.66 440.317 130.042 435.926 140.809 429.484Z"/><path fill="#87F7F7" d="M148.05 511.52C154.627 510.911 165.67 515.028 159.325 523.12C153.951 523.21 139.568 518.561 148.05 511.52Z"/><path fill="#87F7F7" d="M148.096 558.915C154.283 559.774 169.257 567.128 157.962 572.222C152.757 570.578 137.466 565.114 148.096 558.915Z"/><path fill="#87F7F7" d="M117.733 516.007C122.537 515.664 129.362 518.214 130.245 523.491C129.88 525.411 129.582 525.568 128.28 526.977C122.474 526.909 110.901 523.391 117.733 516.007Z"/><path fill="#87F7F7" d="M117.773 554.47C122.27 555.279 134.635 559.885 126.237 565.157C120.321 565.094 111.199 561.1 117.773 554.47Z"/><path fill="#87F7F7" d="M525.523 466.208C532.549 464.989 542.93 466.411 549.668 468.717C556.026 470.696 559.793 475.132 558.844 482.113C556.767 497.384 554.895 512.602 553.634 527.986C552.01 547.792 550.822 569.995 529.126 577.932C514.259 583.37 498.642 581.328 484.27 575.051C484.859 570.004 485.345 564.137 488.569 560.08C499.133 561.081 512.442 567.241 523.301 560.071C530.007 555.643 531.425 548.208 532.86 540.949C526.448 545.018 521.268 548.106 513.654 548.922C496.427 550.767 486.291 538.116 485.033 522.201C483.877 507.571 486.853 492.442 496.359 480.871C504.084 471.468 513.653 467.404 525.523 466.208ZM517.89 531.545C525.472 530.418 529.341 528.301 534.111 522.011C534.738 516.48 538.555 487.436 537.662 484.894C534.97 483.663 529.857 483.78 526.93 484.176C511.559 486.507 507.026 498.172 506.118 512.183C505.537 521.159 508.26 529.422 517.89 531.545Z"/><path fill="#87F7F7" d="M439.482 465.654C447.096 464.738 457.889 466.915 464.186 471.539C484.143 486.194 478.187 522.589 465.783 540.159C458.554 550.401 448.702 554.338 436.844 556.172C391.836 562.016 391.623 509.982 409.633 482.738C416.42 472.47 427.617 467.47 439.482 465.654ZM437.589 537.204C443.793 535.349 447.698 532.532 450.696 526.468C455.622 516.505 457.225 503.204 454.48 492.416C452.408 484.548 444.116 484.074 437.344 484.604C420.143 489.017 417.374 512.706 419.998 527.33C421.591 536.208 430.002 538.114 437.589 537.204Z"/><path fill="#87F7F7" d="M804.33 465.227C814.547 465.208 826.865 466.376 833.729 475.21C835.168 477.062 837.352 481.655 837.396 484.004C837.765 503.761 833.786 523.692 831.964 543.37C830.718 557.218 821.904 558.924 814.763 547.14C803.124 557.48 784.32 560.873 771.957 549.864C762.069 539.531 763.991 519.952 773.538 510.024C783.925 499.223 802.657 500.491 816.358 500.292C816.401 497.856 816.734 490.65 815.753 488.728C810.514 478.462 785.92 485.102 778.947 488.414C779.104 482.137 779.579 476.191 780.06 469.936C787.749 466.605 796.047 465.616 804.33 465.227ZM802.87 537.851C806.862 536.757 808.748 536.006 812.353 533.653C812.765 527.89 813.954 520.896 814.146 515.521C809.098 515.484 803.11 515.291 798.144 515.615C794.476 516.282 790.303 517.684 788.58 521.098C781.271 535.587 791.05 539.809 802.87 537.851Z"/><path fill="#87F7F7" d="M824.773 443.482C835.428 443.575 844.892 443.875 855.581 443.575C864.519 455.779 873.663 471.467 882.398 484.14C885.74 488.988 896.935 506.082 899.246 510.932C891.9 524.156 879.815 539.717 871.326 552.796C867.718 558.355 858.669 573.469 855.402 577.651C844.779 577.7 834.155 577.645 823.533 577.486C825.791 572.844 829.624 567.567 832.559 563.197C842.896 547.8 853.754 532.649 863.716 517.004L864.218 515.938L868.76 510.155C859.44 495.576 849.984 481.084 840.393 466.682C835.766 459.787 828.778 450.332 824.773 443.482Z"/><path fill="#87F7F7" d="M858.721 443.542C867.723 443.398 877.02 443.539 886.044 443.561C889.576 447.227 895.656 458.53 899.004 463.531C909.067 478.566 918.72 494.236 928.923 509.16C926.647 514.158 920.658 523.214 917.58 527.918L900.064 554.61C897.104 559.149 888.069 574.294 884.951 577.374C876.389 577.763 866.52 577.568 857.861 577.596C870.229 556.029 888.023 532.353 901.643 510.623C893.386 497.525 885.122 484.322 876.806 471.273C870.817 461.873 864.55 453.241 858.721 443.542Z"/><path fill="#87F7F7" d="M633.34 466.175C641.046 464.73 654.214 468.193 661.433 470.517C660.64 476.288 660.104 481.422 659.136 487.272C649.199 486.475 633.162 480.331 625.068 489.577C621.01 494.437 631.588 499.772 635.283 501.508C653.522 510.075 665.874 523.307 652.978 543.488C647.479 552.095 637.716 554.447 627.865 555.977C625.839 556.042 623.812 556.066 621.785 556.05C616.453 555.973 603.814 555.053 600.012 550.691C597.716 548.056 600.048 537.195 600.849 533.631C608.422 536.92 617.128 538.14 625.504 537.8C630.319 537.604 639.303 536.583 637.434 529.093C636.302 524.554 629.677 521.475 625.633 519.491C616.609 515.065 606.091 509.887 604.41 498.718C603.37 491.935 605.653 483.397 609.696 477.806C615.183 470.217 624.507 467.244 633.34 466.175Z"/><path fill="#87F7F7" d="M680.934 449.55C686.475 449.27 692.633 449.495 698.224 449.578C697.726 454.82 696.409 462.766 695.335 467.889C702.945 468.038 710.798 467.94 718.427 467.936C717.446 476.035 717.281 478.64 714.93 486.882C707.807 487.23 699.09 487.019 691.846 487.031C691.081 495.967 689.741 505.92 688.88 514.819C686.651 537.862 688.127 538.123 709.352 535.878C708.808 540.763 709.726 549.786 706.007 553.073C702.427 556.238 692.513 556.138 687.899 555.736C664.009 553.655 666.441 535.054 667.937 517.568C668.478 510.986 669.135 504.414 669.909 497.855C671.434 484.917 673.486 467.25 676.413 454.345C676.757 452.828 679.678 450.543 680.934 449.55Z"/><path fill="#87F7F7" d="M362.492 441.622C364.367 441.528 366.244 441.47 368.121 441.446C375.954 441.409 380.872 442.937 381.069 451.873C381.241 459.65 380.131 467.405 379.348 475.142C377.957 488.439 376.677 501.748 375.508 515.066C374.071 533.199 373.74 536.276 392.871 536.499C393.262 540.991 394.437 548.782 393.122 553.196C392.754 554.43 391.535 554.582 390.52 554.888C375.859 556.959 358.215 555.147 354.766 537.475C352.622 526.488 354.1 516.501 355.083 505.472L357.972 472.492C358.732 463.382 359.582 452.914 360.519 443.696C360.659 442.32 361.502 442.135 362.492 441.622Z"/><path fill="#87F7F7" d="M756.147 467.213C760.706 466.913 767.723 467.452 772.331 467.772C771.75 475.121 771.169 480.808 769.024 487.843C747.207 489.207 745.971 483.392 742.886 509.913C741.293 523.613 739.307 540.467 737.725 554.413C737.648 555.092 736.539 555.093 735.877 555.243C718.749 556.581 717.249 552.943 719.107 536.453C721.445 521.499 720.98 504.084 724.876 489.464C728.822 474.656 742.312 468.03 756.147 467.213Z"/><path fill="#87F7F7" d="M583.216 471.084C587.549 471.067 591.883 471.122 596.215 471.249C593.894 491.581 590.275 511.654 588.38 532.015C587.581 540.603 587.318 545.938 591.279 553.685C587.768 554.644 586.557 554.998 582.906 555.158C579.613 555.572 574.892 555.102 571.993 553.472C570.171 552.448 569.237 551.06 568.726 549.05C566.404 539.927 572.447 481.34 577.144 474.25C578.494 472.211 580.999 471.614 583.216 471.084Z"/><path fill="#87F7F7" d="M580.211 442.652C586.597 442.215 593.537 442.436 599.974 442.524C600.558 448.78 602.573 456.644 595.637 459.466C590.658 459.674 579.706 461.083 576.511 457.356C573.489 453.83 577.285 445.412 580.211 442.652Z"/></svg>