<?xml version="1.0" encoding="utf-8" ?><svg xmlns="http://www.w3.org/2000/svg" xmlns:xlink="http://www.w3.org/1999/xlink" width="1024" height="1024" viewBox="0 0 1024 1024"><path fill="#1E415C" d="M213.947 386.277C218.287 387.151 226.762 391.189 231.154 393.144C240.51 397.298 249.844 401.501 259.156 405.753C273.887 412.447 288.905 419.086 303.532 426.051C305.386 426.933 306.499 428.096 307.868 429.603C308.566 444.41 307.629 461.006 308.032 475.95C308.191 481.844 307.775 488.095 308.304 493.965C313.637 494.882 321.475 494.833 325.077 498.58C326.975 504.43 326.061 562.692 325.694 573.16C328.087 572.824 333.703 571.867 334.41 574.866C335.735 580.488 336.046 595.844 334.252 600.778C331.774 603.88 285.659 614.986 278.244 617.335C258.802 623.495 237.674 628.343 218.157 634.899C215.871 635.908 211.603 637.052 209.151 636.371C197.006 632.997 184.962 628.634 172.942 624.856C156.407 619.755 139.922 614.491 123.49 609.066C116.082 606.645 103.452 602.939 96.8614 599.642C96.9264 594.868 96.3845 575.922 98.0309 573.297C100.755 571.524 102.728 572.123 105.954 572.516C106.108 565.051 105.212 509.58 106.887 506.911C108.523 504.306 119.89 502.79 123.052 502.137C122.926 478.836 122.239 450.137 123.19 427.194C134.887 420.596 152.362 413.667 164.75 407.844L192.451 394.65C198.747 391.631 207.111 386.682 213.947 386.277ZM256.11 592.003C259.424 591.141 263.739 590.146 266.854 588.979C266.946 566.214 266.857 543.45 266.587 520.687C266.499 513.364 267.109 503.161 266.644 496.264C252.229 493.107 230.966 490.96 215.966 489.162L215.929 563.242C215.906 575.089 216.373 591.539 215.604 602.97C227.872 598.578 243.507 596.1 256.11 592.003ZM317.598 505.05C304.494 502.605 288.908 499.938 275.689 498.101L275.529 555.746C275.502 565.87 275.094 577.212 275.486 587.185C282.243 584.656 300.836 580.493 308.616 578.679L317.861 576.267L318.114 532.463C318.137 524.789 318.435 512.329 317.598 505.05ZM216.195 478.589C230.288 480.812 244.334 483.837 258.399 485.735C258.492 462.516 258.464 439.297 258.315 416.078C249.153 411.825 239.901 407.769 230.565 403.913C228.132 402.895 217.925 398.879 215.999 397.72L216.023 443.751C216.013 454.82 215.744 467.614 216.195 478.589ZM265.396 487.157C276.198 488.713 286.963 490.837 297.893 492.441L298.809 492.285C299.495 489.637 299.105 474.23 299.093 470.574C299.052 458.717 299.325 446.386 299.025 434.553C288.353 430.502 276.243 423.958 265.472 419.206C264.884 439.488 264.787 466.887 265.396 487.157ZM175.5 547.212C176.61 545.647 177.932 543.898 178.846 542.237C186.966 541.349 190.544 546.427 198.437 547.405C200.687 547.683 204.435 547.355 206.791 547.202C207.043 535.217 207.128 523.229 207.046 511.241C207.048 505.712 207.316 496.633 206.824 491.481L206.265 490.924L205.708 491.133C196.494 493.826 184.956 496.103 175.434 497.856C174.881 505.438 175.328 512.303 175.301 519.787C175.268 529.032 175.29 537.961 175.5 547.212ZM147.514 541.118L153.133 545.795C157.893 546.509 161.345 546.614 166.118 546.776C166.086 542.329 166.31 501.373 165.721 500.418L164.636 500.57C157.095 502.184 149.376 503.744 141.925 505.668C141.411 517.541 141.823 529.63 141.693 541.524C144.254 541.065 144.952 540.888 147.514 541.118ZM150.303 464.983C145.884 469.7 138.377 473.326 131.979 474.462C131.949 477.895 131.273 492.93 132.862 494.74C134.114 494.366 133.905 494.635 134.721 493.842C139.49 490.008 142.487 490.687 146.74 494.493C152.474 492.948 158.236 491.508 164.022 490.173C164.014 485.877 164.237 464.526 163.571 461.685L162.764 461.515C159.258 462.543 153.738 464.339 150.303 464.983ZM142.087 553.273C141.901 562.359 141.761 573.505 142.114 582.628C144.853 583.409 150.731 584.906 153.1 586.097C156.371 586.974 163.833 588.801 166.416 590.204C166.177 577.675 166.063 565.144 166.076 552.612C162.166 552.281 159.659 552.112 155.759 552.215C153.733 552.937 151.641 556.221 149.789 556.377C147.783 556.545 143.943 554.261 142.087 553.273ZM148.281 460.657C153.416 459.16 158.495 457.48 163.51 455.62C163.504 450.855 163.959 420.168 162.763 418.477C152.418 424.726 143.815 425.923 132.187 433.911C131.992 437.447 131.305 456.511 132.487 458.384C134.182 458.746 134.27 458.658 135.937 458.476C137.922 457.858 140.408 457.003 142.393 456.562C145.026 458.107 145.892 458.633 148.281 460.657ZM114.841 550.724C114.143 555.13 114.555 569.357 114.612 574.485C120.847 576.681 127.129 578.742 133.453 580.667C133.776 570.986 133.417 561.25 133.532 551.576C128.294 551.455 119.958 551.389 114.841 550.724ZM133.607 546.009C133.577 534.225 134.094 518.966 133.421 507.647C107.884 515.93 114.909 513.082 114.267 541.604C116.16 542.464 117.178 542.88 118.89 544.02C120.562 544.67 130.968 545.628 133.607 546.009ZM172.523 415.382C172.513 419.781 171.978 451.027 173.609 452.739C174.489 451.249 174.393 451.336 174.228 449.589C174.762 445.282 179.851 442.792 183.7 442.152C186.361 443.052 189.045 443.912 191.646 444.969C197.539 444.218 202.469 442.262 207.863 441.583C207.866 436.614 208.275 400.207 206.991 398.56C196.756 403.306 181.807 409.741 172.523 415.382ZM178.647 482.538L182.749 482.158L186.747 485.407C193.14 483.655 201.381 481.209 207.794 480.013C207.797 476.166 208.08 447.706 207.158 446.567L206.389 446.602C201.975 447.791 198.595 448.874 194.282 450.399C188.778 457.677 183.581 453.529 173.457 459.541C173.299 467.486 172.933 476.467 173.321 484.31C175.071 483.746 176.938 483.188 178.647 482.538ZM326.135 593.918L326.065 593.221C325.848 590.901 326.086 585.384 325.561 584.166C325.296 584.127 324.459 583.981 324.23 584C307.46 589.147 289.54 593.285 272.515 597.738C253.941 602.596 234.149 608.583 215.439 612.381C215.38 615.304 214.849 623.281 216.084 625.33L217.397 624.987C229.131 620.694 243.735 617.172 256.016 613.661C279.318 606.828 302.692 600.247 326.135 593.918ZM206.816 612.294C190.311 608.022 172.636 602.22 156.17 597.296C139.911 592.435 122.207 588.021 106.245 582.731C106.293 586.339 106.379 589.947 106.505 593.553L206.538 625.371C207.175 620.241 206.564 617.128 206.816 612.294ZM175.505 552.984C175.283 564.523 174.803 581.493 175.505 592.827C186.401 595.346 197.005 599.428 207.36 602.031L207.366 597.125C207.331 582.519 206.997 567.499 207.073 552.972C205.229 553.009 195.631 552.717 194.031 553.921C193.553 554.281 193.048 556.344 192.828 557.133C189.269 560.256 179.335 554.861 175.505 552.984Z"/><path fill="#1E415C" d="M231.082 508.549C237.725 508.28 242.054 512.723 235.393 516.72C232.071 516.467 227.576 515.666 227.795 511.513C228.748 509.707 229.221 509.627 231.082 508.549Z"/><path fill="#1E415C" d="M230.93 526.966C234.219 526.898 238.542 527.423 238.108 531.721C237.099 533.36 236.728 533.42 235.05 534.295C231.803 534.336 227.959 533.857 228.078 529.854C228.994 528.084 229.175 528.064 230.93 526.966Z"/><path fill="#1E415C" d="M230.426 545.56C233.811 545.368 238.909 545.467 238.928 550.088C238.027 551.52 238.094 551.628 236.552 552.44C233.244 552.545 229.312 552.766 228.458 548.835C229.116 546.954 229.081 547.048 230.426 545.56Z"/><path fill="#1E415C" d="M247.486 510.083C252.64 509.704 259.522 511.845 253.49 517.468C249.929 517.657 247.527 517.498 246.171 513.743C246.379 511.683 246.323 511.781 247.486 510.083Z"/><path fill="#1E415C" d="M248.606 545.566C251.707 545.478 255.112 545.146 255.919 548.912C255.499 550.731 255.208 550.938 254.068 552.361C248.592 553.778 244.293 550.83 248.606 545.566Z"/><path fill="#1E415C" d="M249.51 527.521C252.526 527.532 255.945 528.238 255.3 532.04C254.186 533.687 253.799 533.736 252.033 534.573C249.317 534.116 246.692 533.738 246.54 530.578C247.483 528.758 247.741 528.711 249.51 527.521Z"/><path fill="#1E415C" d="M287.518 545.488C290.408 545.42 293.347 546.013 293.547 549.45C292.723 551.212 292.569 551.124 290.911 552.063C287.975 552.143 284.307 551.89 284.473 548.074C285.22 546.482 285.947 546.316 287.518 545.488Z"/><path fill="#1E415C" d="M286.273 513.093C289.493 512.909 292.336 512.684 292.672 516.683C292.043 518.468 291.716 518.609 290.32 519.83C287.155 519.941 285.422 519.543 284.44 516.275C284.966 514.027 284.603 514.848 286.273 513.093Z"/><path fill="#1E415C" d="M287.749 528.939C289.859 529.02 290.441 529.07 292.082 530.306C293.001 532.053 292.798 531.127 292.54 533.217C291.574 534.88 291.053 534.984 289.365 535.874C286.787 535.542 284.469 534.904 284.324 531.976C285.294 530.319 286.141 529.975 287.749 528.939Z"/><path fill="#1E415C" d="M299.452 544.97C302.339 544.84 304.219 544.783 305.535 547.666C305.443 549.639 305.274 549.736 304.119 551.439C301.245 551.689 299 552.024 297.87 548.862C298.076 546.836 298.266 546.719 299.452 544.97Z"/><path fill="#1E415C" d="M300.284 513.441C303.073 514.035 304.32 513.87 305.308 516.671C304.98 518.648 304.843 518.721 303.586 520.364C300.529 520.21 298.418 520.025 297.898 516.572C298.624 514.64 298.628 514.752 300.284 513.441Z"/><path fill="#1E415C" d="M300.609 529.023C302.355 528.535 304.179 529.492 304.771 531.206C305.362 532.92 304.515 534.798 302.839 535.49C301.663 535.976 300.314 535.77 299.337 534.954C298.359 534.139 297.914 532.849 298.181 531.604C298.448 530.36 299.383 529.366 300.609 529.023Z"/><path fill="#1E415C" d="M312.193 545.223C313.843 544.727 315.591 545.618 316.16 547.244C316.729 548.871 315.917 550.657 314.317 551.297C313.217 551.738 311.964 551.539 311.055 550.779C310.146 550.019 309.727 548.822 309.965 547.661C310.203 546.5 311.058 545.564 312.193 545.223Z"/><path fill="#1E415C" d="M311.096 529.99C313.756 529.916 314.807 529.567 316.565 531.667C316.843 533.458 316.514 533.801 315.73 535.423C313.09 535.607 312.328 535.83 310.496 533.825C310.111 531.994 310.379 531.698 311.096 529.99Z"/><path fill="#1E415C" d="M312.6 514.818C314.158 514.464 315.721 515.386 316.163 516.921C316.606 518.456 315.775 520.069 314.268 520.599C313.214 520.971 312.04 520.727 311.22 519.968C310.399 519.208 310.067 518.056 310.357 516.976C310.646 515.896 311.51 515.065 312.6 514.818Z"/><path fill="#1E415C" d="M228.653 422.038C234.115 422.469 238.673 425.531 235.19 431.183L233.879 431.442C230.143 430.655 226.345 429.129 226.131 424.799C226.926 422.986 227.037 423.075 228.653 422.038Z"/><path fill="#1E415C" d="M242.559 426.554C246.046 427.185 249.802 428.289 250.566 432.243C250.213 434.129 250.273 434.004 248.993 435.433C243.761 434.666 236.919 432.797 242.559 426.554Z"/><path fill="#1E415C" d="M280.022 458.829C282.347 459.036 285.346 459.199 287.185 460.662C287.507 462.025 287.395 462.224 288.32 463.208C290.952 462.317 293.113 461.039 295.057 463.485C295.55 465.67 295.434 465.838 294.951 468.094C292.802 468.006 290.623 467.842 288.783 466.761C288.391 465.17 288.708 465.35 287.762 464.352C284.503 465.233 282.438 466.117 280.053 463.323C279.486 461.095 279.484 461.023 280.022 458.829Z"/><path fill="#1E415C" d="M272.577 446.062C273.357 445.991 274.14 445.94 274.923 445.909C278.71 445.788 283.876 448.654 283.943 452.845L283.314 453.364L282.172 451.261C281.645 452.441 282.182 452.396 281.508 453.831C278.307 452.555 272.915 451.294 271.696 447.816L272.577 446.062Z"/><path fill="#1E415C" d="M285.012 449.803C286.992 449.946 292.878 451.079 294.181 453.012C295.205 454.53 294.676 455.874 294.488 457.811C291.293 457.242 287.844 456.328 285.469 454.122C284.605 452.391 284.84 451.725 285.012 449.803Z"/><path fill="#1E415C" d="M272.424 478.476C275.568 478.822 278.634 478.664 280.637 481.043C281.184 482.906 280.965 483.243 280.473 485.09C275.265 485.431 270.798 484.776 272.424 478.476Z"/><path fill="#1E415C" d="M279.642 438.502C275.848 440.764 271.387 440.113 270.932 435.052C271.788 433.452 271.17 434.053 272.952 433.302C276.026 433.402 277.47 434.343 279.58 436.539L279.642 438.502Z"/><path fill="#1E415C" d="M279.58 436.539C282.57 436.499 284.466 437.108 286.932 438.797L287.455 439.931C287.32 441.491 287.271 441.39 288.069 442.728C287.208 444.028 287.732 443.447 286.066 444.165C282.46 444.088 280.793 441.569 279.642 438.502L279.58 436.539Z"/><path fill="#1E415C" d="M288.069 442.728C287.271 441.39 287.32 441.491 287.455 439.931C290.194 440.792 293.348 440.276 295.204 442.154C296.541 443.507 295.457 446.293 294.155 447.391C289.96 447.042 289.545 443.768 288.069 442.728Z"/><path fill="#1E415C" d="M271.797 466.626C274.748 467.388 277.441 467.663 279.266 470.085C279.731 471.94 279.572 472.019 279.105 473.829C273.611 473.28 270.894 472.589 271.797 466.626Z"/><path fill="#1E415C" d="M285.032 481.867C287.86 482.079 291.236 482.189 293.263 484.165C293.517 486.026 293.604 485.122 292.85 486.959C289.701 487.162 286.386 487.625 284.255 485.037C284.154 482.899 283.981 483.934 285.032 481.867Z"/><path fill="#1E415C" d="M271.432 455.226C275.607 455.925 279.166 456.547 278.833 461.553C272.892 462.253 270.645 461.596 271.432 455.226Z"/><path fill="#1E415C" d="M289.465 472.507C292.071 472.583 294.181 472.517 295.836 474.809C296.462 476.714 296.11 477.242 295.526 479.159C291.575 478.671 287.84 477.402 289.465 472.507Z"/><path fill="#1E415C" d="M282.654 470.559C285.161 471.076 287.869 471.433 288.011 474.393C287.137 475.897 286.579 476.014 285.04 476.81C282.53 476.446 280.649 475.66 280.158 473.061C281.061 471.282 280.806 471.821 282.654 470.559Z"/><path fill="#1E415C" d="M181.864 505.38C186.196 506.16 197.37 508.136 197.226 513.539C196.277 515.289 196.088 515.338 194.442 516.562C187.917 517.36 174.028 513.484 181.864 505.38Z"/><path fill="#1E415C" d="M183.484 561.524C188.06 561.497 197.649 563.727 198.192 569.286C197.639 571.255 197.59 571.144 195.975 572.512C189.75 572.645 176.052 570.225 183.484 561.524Z"/><path fill="#1E415C" d="M181.376 412.424C185.006 412.089 195.626 414.456 196.7 418.667C196.416 420.633 195.989 420.966 194.812 422.535C191.399 424.06 187.502 423.181 184.409 421.395C180.018 418.858 179.147 416.598 181.376 412.424Z"/><path fill="#1E415C" d="M183.103 457.093C187.849 456.828 197.033 456.617 197.81 462.83C196.751 465.818 195.215 466.367 192.419 467.795C187.117 468.51 170.78 463.322 183.103 457.093Z"/><path fill="#1E415C" d="M139.408 430.452C145.86 430.093 156.758 432.307 151.132 441.029C146.976 441.196 138.184 438.475 137.225 433.77C137.572 431.909 138.011 431.722 139.408 430.452Z"/><path fill="#1E415C" d="M147.562 512.007C151.505 511.856 159.287 512.744 160.822 517.239C161.595 519.505 160.384 521.462 159.434 523.474C153.789 522.579 141.557 519.853 147.562 512.007Z"/><path fill="#1E415C" d="M140.768 471.516C142.685 471.526 144.6 471.658 146.5 471.909C149.135 472.266 151.772 473.704 153.381 475.859C154.046 479.325 151.999 480.324 149.211 481.75C145.563 480.836 136.819 479.602 137.433 474.579C138.672 472.871 138.991 472.754 140.768 471.516Z"/><path fill="#1E415C" d="M148.203 559.317C154.196 560.552 167.822 564.762 158.638 572.492C153.638 571.21 136.546 565.253 148.203 559.317Z"/><path fill="#1E415C" d="M118.511 515.744C122.481 516.71 134.87 521.82 127.506 526.931C123.045 525.969 116.145 524.991 115.674 519.61C116.453 517.484 116.787 517.349 118.511 515.744Z"/><path fill="#1E415C" d="M117.242 554.944C122.69 555.382 132.324 557.815 126.829 565.065C121.468 565.052 112.053 561.697 117.242 554.944Z"/><path fill="#4185B4" d="M858.255 444.018C867.397 443.94 877.229 443.673 886.319 443.862C892.248 452.377 897.225 461.845 902.918 470.502C911.545 483.619 919.853 496.02 928.077 509.444C925.404 515.276 916.401 528.475 912.293 534.885L894.603 562.002C892.919 564.597 886.283 576.224 884.277 576.535C878.243 577.469 864.21 577.381 858.247 577.028L855.842 577.194C846.576 577.876 833.45 577.512 823.939 577.515C830.513 565.987 842.394 550.089 849.724 538.575C854.2 531.543 864.183 515.814 868.905 510.109C866.416 506.639 863.675 501.955 861.265 498.278L842.69 469.992C837.908 462.75 829.163 451.258 825.628 444.15C835.248 443.827 846.287 444.042 856.076 443.976L858.255 444.018Z"/><path fill="#4185B4" d="M858.255 444.018C867.397 443.94 877.229 443.673 886.319 443.862C892.248 452.377 897.225 461.845 902.918 470.502C911.545 483.619 919.853 496.02 928.077 509.444C925.404 515.276 916.401 528.475 912.293 534.885L894.603 562.002C892.919 564.597 886.283 576.224 884.277 576.535C878.243 577.469 864.21 577.381 858.247 577.028C870.867 555.177 889.33 532.076 901.989 510.622C900.032 506.813 893.689 497.682 891.093 493.61C880.312 476.971 869.366 460.439 858.255 444.018Z"/><path fill="#F9F4EA" d="M856.076 443.976L858.255 444.018C869.366 460.439 880.312 476.971 891.093 493.61C893.689 497.682 900.032 506.813 901.989 510.622C889.33 532.076 870.867 555.177 858.247 577.028L855.842 577.194C857.78 572.735 866.923 559.904 869.93 555.251C879.572 540.327 889.431 525.497 899.782 511.054C890.604 495.741 878.623 479.461 869.023 464.197C867.096 461.133 856.813 446.31 856.076 443.976Z"/><path fill="#1E415C" d="M530.082 466.163C540.121 465.569 561.622 467.962 559.262 481.931C557.813 490.502 556.76 499.217 555.507 507.86C553.115 524.809 554.004 543.886 547.978 559.991C539.019 583.936 504.377 583.903 484.916 575.24C485.846 570.368 485.721 563.506 488.646 560.838C491.023 560.165 491.418 560.708 494.039 561.381C502.998 563.237 515.576 566.179 523.803 560.669C530.591 556.122 531.847 547.827 533.366 540.477C526.736 544.386 522.197 547.858 514.291 548.784C477.725 553.063 479.949 500.349 496.247 481.19C506.599 469.02 515.121 467.579 530.082 466.163ZM512.803 530.836C516.372 531.694 516.853 531.973 520.543 531.461C527.539 529.728 529.378 528.394 534.319 522.979C534.981 517.946 538.68 487.056 537.763 484.896C534.3 483.418 528.911 483.923 525.062 484.031C514.649 486.855 509.457 493.541 507.233 503.903C505.091 513.884 504.235 523.625 512.803 530.836Z"/><path fill="#1E415C" d="M439.36 466.181C483.533 461.834 484.312 512.181 466.245 539.486C459.6 549.53 448.708 554.214 437.087 555.961C428.385 556.615 418.713 556.251 411.382 550.938C405.16 546.411 400.974 539.613 399.733 532.02C397.477 517.476 401.037 493.684 410.725 481.955C419.271 471.608 426.32 468.044 439.36 466.181ZM436.75 537.822C454.436 535.295 456.978 509.379 455.125 495.231C454.689 491.904 453.279 489.542 451.439 486.84C446.545 484.49 443.282 484.214 437.829 484.618C420.618 487.174 417.754 512.452 419.529 526.228C420.829 536.321 427.557 539.15 436.75 537.822Z"/><path fill="#1E415C" d="M809.801 465.739C822.687 465.609 837.379 472.293 837.412 486.669C837.197 505.853 833.486 525.357 831.318 544.459C829.757 558.212 820.767 557.247 814.529 546.762C802.946 558.958 778.295 561.089 768.465 545.359C763.102 536.664 765.867 518.032 772.894 510.589C784.166 498.65 801.372 500.996 816.034 500.212C816.816 492.653 817.887 484.822 807.739 483.682C798.027 482.59 787.316 484.349 778.684 489.007C778.68 484.193 779.782 475.209 780.187 470.015C790.201 465.849 799.27 466.011 809.801 465.739ZM789.958 518.52C787.295 522.342 785.071 527.097 786.034 531.898C786.464 534.133 787.85 536.067 789.827 537.194C793.076 539.038 795.704 538.879 799.246 538.608L801.48 538.443C806.502 537.532 807.801 537.195 812.419 534.519C812.809 527.536 813.33 522.646 814.27 515.676C809.71 515.612 802.975 515.319 798.585 515.687C794.946 516.451 793.42 517.078 789.958 518.52Z"/><path fill="#1E415C" d="M630.645 466.601C638.927 465.874 653.325 466.887 660.868 470.711C660.715 476.26 659.825 481.759 659.068 487.263C655.006 486.35 650.901 485.641 646.768 485.138C640.464 484.37 631.279 483.659 626.1 487.842C619.165 493.444 627.567 497.983 632.446 500.345C641.969 504.94 656.557 511.573 657.387 524.019C658.733 544.198 646.536 553.692 628.616 555.941C617.44 556.205 609.308 556.077 599.389 550.601C598.933 544.911 599.557 539.587 600.705 534.036C610.402 537.209 628.387 541.746 636.91 534.482C638.91 530.333 636.428 525.62 632.747 523.386C623.533 517.794 608.6 513.986 605.315 502.194C601.844 489.737 608.251 474.014 620.787 469.429C624.354 468.125 627.136 467.673 630.645 466.601Z"/><path fill="#1E415C" d="M682.337 449.59C687.454 449.333 693.052 449.803 698.49 449.607C697.129 456.082 695.88 461.943 694.957 468.491C702.654 468.444 710.35 468.289 718.042 468.026C717.835 475.302 718.011 479.743 714.887 486.36C708.167 487.011 699.502 486.792 692.588 486.787C689.585 496.995 688.874 515.526 687.649 526.588C686.224 539.446 698.569 537.875 707.379 536.042L708.696 536.183L709.291 537.003C709.153 539.802 708.887 552.92 705.768 553.842C698.155 556.029 688.092 556.181 680.367 554.348C670.114 551.915 666.666 541.521 667.152 532.077C668.474 506.412 671.752 480.046 676.478 454.775C676.951 452.25 680.275 450.495 682.337 449.59Z"/><path fill="#1E415C" d="M364.86 442.279C368.792 442.223 375.91 441.7 378.561 444.467C382.885 448.979 380.051 464.902 379.526 470.424L376.515 501.06C375.481 510.88 374.132 520.265 374.554 530.158C376.617 533.182 376.925 533.728 379.692 536.268C382.91 536.63 389.207 536.834 392.341 536.573C392.586 541.729 394.021 548.807 392.932 553.466C391.538 554.944 392.365 554.339 390.124 554.986C381.249 555.461 374.23 556.385 365.91 552.499C348.997 544.598 354.261 518.956 355.675 504.026L358.189 474.566C358.543 470.471 360.444 444.759 361.123 443.4C362.76 442.169 362.496 442.555 364.86 442.279Z"/><path fill="#1E415C" d="M751.785 467.675C757.631 467.174 766.322 467.607 772.132 468.28C772.049 474.839 770.429 480.901 768.934 487.253C760.054 487.836 745.618 484.796 744.211 496.943C742.101 515.165 738.065 536.317 738.103 554.472L737.574 554.952C733.856 555.286 724.052 556.294 721.119 553.91C719.657 552.722 719.066 551.237 718.758 549.412C718.016 545.013 722.942 498.743 724.42 492.648C725.551 487.985 727.401 483.515 730.288 479.657C735.641 472.505 743.119 468.984 751.785 467.675Z"/><path fill="#1E415C" d="M580.162 471.533L595.851 471.534C593.657 495.967 587.706 520.88 588.106 545.403C588.158 548.585 589.852 550.928 590.424 553.859C589.121 554.784 587.846 554.851 586.254 555.148C583.2 555.22 580.037 555.386 577 555.004C574.506 554.69 571.529 553.771 570.01 551.61C564.612 543.934 572.512 493.401 574.599 482.997C575.465 478.683 576.253 474.105 580.162 471.533Z"/><path fill="#1E415C" d="M593.246 442.759C594.543 442.647 598.479 442.864 599.972 442.906C600.337 460.757 600.956 459.779 583.216 459.435C581.578 459.509 578.522 459.829 577.208 458.749C573.229 455.479 576.852 446.611 579.486 443.863C580.949 442.337 590.878 442.792 593.246 442.759Z"/><path d="M655.866 510.971C657.342 511.599 657.038 511.325 658.209 512.306C657.058 513.209 657.642 512.822 655.71 512.874C654.525 513.671 655.177 513.52 653.809 513.581C654.31 511.897 654.288 512.336 655.866 510.971Z"/></svg>